<?xml version="1.0" encoding="UTF-8" standalone="no"?>
<svg
   xmlns:dc="http://purl.org/dc/elements/1.1/"
   xmlns:cc="http://creativecommons.org/ns#"
   xmlns:rdf="http://www.w3.org/1999/02/22-rdf-syntax-ns#"
   xmlns:svg="http://www.w3.org/2000/svg"
   xmlns="http://www.w3.org/2000/svg"
   xmlns:xlink="http://www.w3.org/1999/xlink"
   xmlns:sodipodi="http://sodipodi.sourceforge.net/DTD/sodipodi-0.dtd"
   xmlns:inkscape="http://www.inkscape.org/namespaces/inkscape"
   width="210mm"
   height="297mm"
   viewBox="0 0 210 297"
   version="1.1"
   id="svg933"
   inkscape:version="1.0.2-2 (e86c870879, 2021-01-15)"
   sodipodi:docname="TechnicalSketcher-Logo2.svg">
  <defs
     id="defs927">
    <filter
       id="SVGID_272"
       y="-0.2"
       height="1.4"
       x="-0.20999999"
       width="1.42">
      <feGaussianBlur
         in="SourceAlpha"
         stdDeviation="0"
         id="feGaussianBlur51" />
      <feOffset
         dx="69"
         dy="-48"
         result="oBlur"
         id="feOffset53" />
      <feFlood
         flood-color="rgb(255,0,0)"
         flood-opacity="0"
         id="feFlood55" />
      <feComposite
         in2="oBlur"
         operator="in"
         id="feComposite57" />
      <feMerge
         id="feMerge63">
        <feMergeNode
           id="feMergeNode59" />
        <feMergeNode
           in="SourceGraphic"
           id="feMergeNode61" />
      </feMerge>
    </filter>
    <filter
       id="SVGID_272-1"
       y="-0.2"
       height="1.4"
       x="-0.20999999"
       width="1.42">
      <feGaussianBlur
         in="SourceAlpha"
         stdDeviation="0"
         id="feGaussianBlur51-5" />
      <feOffset
         dx="69"
         dy="-48"
         result="oBlur"
         id="feOffset53-3" />
      <feFlood
         flood-color="rgb(255,0,0)"
         flood-opacity="0"
         id="feFlood55-8" />
      <feComposite
         in2="oBlur"
         operator="in"
         id="feComposite57-4" />
      <feMerge
         id="feMerge63-2">
        <feMergeNode
           id="feMergeNode59-4" />
        <feMergeNode
           in="SourceGraphic"
           id="feMergeNode61-3" />
      </feMerge>
    </filter>
    <filter
       id="filter1530-6"
       y="-0.2"
       height="1.4"
       x="-0.20999999"
       width="1.42">
      <feGaussianBlur
         in="SourceAlpha"
         stdDeviation="0"
         id="feGaussianBlur1516-4" />
      <feOffset
         dx="69"
         dy="-48"
         result="oBlur"
         id="feOffset1518-8" />
      <feFlood
         flood-color="rgb(255,0,0)"
         flood-opacity="0"
         id="feFlood1520-9" />
      <feComposite
         in2="oBlur"
         operator="in"
         id="feComposite1522-2" />
      <feMerge
         id="feMerge1528-5">
        <feMergeNode
           id="feMergeNode1524-2" />
        <feMergeNode
           in="SourceGraphic"
           id="feMergeNode1526-7" />
      </feMerge>
    </filter>
    <clipPath
       clipPathUnits="userSpaceOnUse"
       id="clipPath1799">
      <g
         inkscape:label="Clip"
         id="use1801">
        <path
           style="fill:#000000;fill-rule:nonzero;stroke:none;stroke-width:1;stroke-linecap:butt;stroke-linejoin:miter;stroke-miterlimit:4;stroke-dasharray:none;stroke-dashoffset:0;filter:url(#SVGID_272-1)"
           vector-effect="non-scaling-stroke"
           transform="matrix(0.00111125,0,0,-0.00111125,35.820141,56.933491)"
           d="m 120,9782 c -19,-9 -48,-37 -65,-60 L 25,9678 18,9457 C 3,8964 -2,4478 10,2860 17,1966 25,1185 29,1123 c 6,-107 7,-113 36,-143 41,-43 96,-70 144,-70 35,0 50,8 108,59 129,112 475,469 1268,1306 203,215 427,449 498,522 l 129,132 435,-877 C 3393,546 3639,63 3671,36 c 45,-38 91,-43 173,-16 229,73 1171,481 1395,603 60,33 77,47 92,81 10,23 19,52 19,65 0,46 -305,659 -920,1846 -114,220 -269,520 -344,667 l -137,267 43,6 c 24,3 633,9 1353,13 1279,7 1311,8 1350,27 49,25 75,68 82,138 7,73 -11,108 -105,203 -57,56 -5194,4773 -6199,5690 -175,161 -265,200 -353,156 z M 491,9083 C 853,8759 1802,7894 2940,6850 4399,5512 5942,4096 6015,4028 l 70,-65 -365,-7 c -201,-3 -682,-8 -1070,-12 -777,-6 -1060,-15 -1113,-37 -42,-18 -74,-57 -87,-109 -10,-35 -7,-47 31,-136 60,-137 422,-858 719,-1432 377,-728 676,-1312 684,-1337 6,-18 1,-25 -31,-41 -46,-24 -899,-387 -929,-396 -13,-4 -26,0 -37,11 -37,42 -252,457 -782,1513 -310,619 -597,1181 -636,1249 -40,69 -94,147 -120,174 -46,48 -50,50 -93,45 -38,-5 -57,-16 -113,-66 -117,-103 -668,-671 -1639,-1691 -51,-53 -96,-92 -100,-88 -12,11 -12,7288 -1,7430 5,59 12,107 16,107 4,0 36,-26 72,-57 z"
           stroke-linecap="round"
           id="path1803" />
      </g>
    </clipPath>
    <clipPath
       clipPathUnits="userSpaceOnUse"
       id="clipPath1825">
      <use
         x="0"
         y="0"
         xlink:href="#g1821"
         id="use1827" />
    </clipPath>
    <filter
       inkscape:collect="always"
       style="color-interpolation-filters:sRGB"
       id="filter1861"
       x="-5.9948618e-05"
       width="1.0001199"
       y="-0.00025412007"
       height="1.0005082">
      <feGaussianBlur
         inkscape:collect="always"
         stdDeviation="0.00025962354"
         id="feGaussianBlur1863" />
    </filter>
  </defs>
  <sodipodi:namedview
     id="base"
     pagecolor="#ffffff"
     bordercolor="#666666"
     borderopacity="1.0"
     inkscape:pageopacity="0.0"
     inkscape:pageshadow="2"
     inkscape:zoom="5.4133333"
     inkscape:cx="322.9861"
     inkscape:cy="417.24796"
     inkscape:document-units="mm"
     inkscape:current-layer="layer1"
     inkscape:document-rotation="0"
     showgrid="false"
     inkscape:window-width="1600"
     inkscape:window-height="837"
     inkscape:window-x="-8"
     inkscape:window-y="1072"
     inkscape:window-maximized="1" />
  <metadata
     id="metadata930">
    <rdf:RDF>
      <cc:Work
         rdf:about="">
        <dc:format>image/svg+xml</dc:format>
        <dc:type
           rdf:resource="http://purl.org/dc/dcmitype/StillImage" />
        <dc:title></dc:title>
      </cc:Work>
    </rdf:RDF>
  </metadata>
  <g
     inkscape:label="Ebene 1"
     inkscape:groupmode="layer"
     id="layer1">
    <rect
       style="fill:#000000;fill-opacity:1;stroke:none;stroke-width:0.461499;stroke-miterlimit:4;stroke-dasharray:none"
       id="rect1642-5"
       width="9.9861641"
       height="0.9141379"
       x="118.07822"
       y="-48.012569"
       transform="matrix(0.36587327,0.93066468,-0.98680026,0.16194209,0,0)"
       inkscape:export-xdpi="882.30206"
       inkscape:export-ydpi="882.30206" />
    <rect
       style="fill:#000000;fill-opacity:1;stroke:none;stroke-width:0.486819;stroke-miterlimit:4;stroke-dasharray:none;filter:url(#filter1861)"
       id="rect1642"
       width="10.40543"
       height="0.97621393"
       x="85.449585"
       y="115.02757"
       transform="matrix(0.99000283,-0.14104747,0.05344512,0.99857079,0,0)"
       inkscape:transform-center-x="-0.41471896"
       inkscape:transform-center-y="9.0805847e-06"
       inkscape:export-xdpi="882.30206"
       inkscape:export-ydpi="882.30206" />
    <g
       id="g1823"
       clip-path="url(#clipPath1825)"
       transform="matrix(0.99997648,0,0,1.0027539,0.00243879,-0.27624818)"
       inkscape:export-xdpi="882.30206"
       inkscape:export-ydpi="882.30206">
      <g
         inkscape:label="Clip"
         id="g1821">
        <g
           transform="matrix(0.111125,0,0,0.111125,119.58358,115.24264)"
           id="anj-LZ_eWgewiIt_OUcMF">
          <g
             id="g925"
             transform="translate(-176.85607,-52.100823)">
            <g
               transform="matrix(1.92,0,0,1.91,-0.51,0.08)"
               id="Y_Sf6WI_XVZQCwKBk4LX-">
              <path
                 style="opacity:1;fill:#ffffff;fill-rule:nonzero;stroke:#000000;stroke-width:1;stroke-linecap:butt;stroke-linejoin:miter;stroke-miterlimit:4;stroke-dasharray:none;stroke-dashoffset:0"
                 vector-effect="non-scaling-stroke"
                 d="M -16.204512,-24.118198 17.042188,6.0201745 1.90703,6.25745 9.4145361,21.50155 2.2631661,24.479081 -5.5990321,8.875202 -16.324648,19.235846 Z"
                 stroke-linecap="round"
                 id="path48"
                 sodipodi:nodetypes="cccccccc" />
            </g>
            <g
               transform="scale(0.01,-0.01)"
               id="1d1qqG0hTW-rk1VCySbTz">
              <filter
                 id="filter1530"
                 y="-0.2"
                 height="1.4"
                 x="-0.20999999"
                 width="1.42">
                <feGaussianBlur
                   in="SourceAlpha"
                   stdDeviation="0"
                   id="feGaussianBlur1516" />
                <feOffset
                   dx="69"
                   dy="-48"
                   result="oBlur"
                   id="feOffset1518" />
                <feFlood
                   flood-color="rgb(255,0,0)"
                   flood-opacity="0"
                   id="feFlood1520" />
                <feComposite
                   in2="oBlur"
                   operator="in"
                   id="feComposite1522" />
                <feMerge
                   id="feMerge1528">
                  <feMergeNode
                     id="feMergeNode1524" />
                  <feMergeNode
                     in="SourceGraphic"
                     id="feMergeNode1526" />
                </feMerge>
              </filter>
              <path
                 style="opacity:1;fill:#000000;fill-rule:nonzero;stroke:none;stroke-width:1;stroke-linecap:butt;stroke-linejoin:miter;stroke-miterlimit:4;stroke-dasharray:none;stroke-dashoffset:0;filter:url(#SVGID_272)"
                 vector-effect="non-scaling-stroke"
                 transform="translate(-3390.83,-4900.91)"
                 d="m 120,9782 c -19,-9 -48,-37 -65,-60 L 25,9678 18,9457 C 3,8964 -2,4478 10,2860 17,1966 25,1185 29,1123 c 6,-107 7,-113 36,-143 41,-43 96,-70 144,-70 35,0 50,8 108,59 129,112 475,469 1268,1306 203,215 427,449 498,522 l 129,132 435,-877 C 3393,546 3639,63 3671,36 c 45,-38 91,-43 173,-16 229,73 1171,481 1395,603 60,33 77,47 92,81 10,23 19,52 19,65 0,46 -305,659 -920,1846 -114,220 -269,520 -344,667 l -137,267 43,6 c 24,3 633,9 1353,13 1279,7 1311,8 1350,27 49,25 75,68 82,138 7,73 -11,108 -105,203 -57,56 -5194,4773 -6199,5690 -175,161 -265,200 -353,156 z M 491,9083 C 853,8759 1802,7894 2940,6850 4399,5512 5942,4096 6015,4028 l 70,-65 -365,-7 c -201,-3 -682,-8 -1070,-12 -777,-6 -1060,-15 -1113,-37 -42,-18 -74,-57 -87,-109 -10,-35 -7,-47 31,-136 60,-137 422,-858 719,-1432 377,-728 676,-1312 684,-1337 6,-18 1,-25 -31,-41 -46,-24 -899,-387 -929,-396 -13,-4 -26,0 -37,11 -37,42 -252,457 -782,1513 -310,619 -597,1181 -636,1249 -40,69 -94,147 -120,174 -46,48 -50,50 -93,45 -38,-5 -57,-16 -113,-66 -117,-103 -668,-671 -1639,-1691 -51,-53 -96,-92 -100,-88 -12,11 -12,7288 -1,7430 5,59 12,107 16,107 4,0 36,-26 72,-57 z"
                 stroke-linecap="round"
                 id="path66" />
            </g>
          </g>
        </g>
      </g>
    </g>
    <ellipse
       style="fill:#ffffff;stroke:#000000;stroke-width:0.500682;stroke-miterlimit:4;stroke-dasharray:none"
       id="path1600"
       cx="100.92948"
       cy="101.81332"
       rx="1.3742402"
       ry="1.3780571"
       inkscape:export-xdpi="882.30206"
       inkscape:export-ydpi="882.30206" />
    <ellipse
       style="fill:#ffffff;stroke:#000000;stroke-width:0.500682;stroke-miterlimit:4;stroke-dasharray:none"
       id="path1600-8"
       cx="90.567963"
       cy="103.38166"
       rx="1.3742402"
       ry="1.3780571"
       inkscape:export-xdpi="882.30206"
       inkscape:export-ydpi="882.30206" />
    <ellipse
       style="fill:#ffffff;stroke:#000000;stroke-width:0.500682;stroke-miterlimit:4;stroke-dasharray:none"
       id="path1600-8-6"
       cx="93.256088"
       cy="110.19417"
       rx="1.3742402"
       ry="1.3780571"
       inkscape:export-xdpi="882.30206"
       inkscape:export-ydpi="882.30206" />
  </g>
</svg>
